<svg width="393" height="852" viewBox="0 0 393 852" fill="none" xmlns="http://www.w3.org/2000/svg">
<mask id="mask0_1_16633" style="mask-type:alpha" maskUnits="userSpaceOnUse" x="-210" y="-26" width="820" height="902">
<path d="M330.536 337.928C597.259 717.672 481.592 948.573 71.598 853.246C-338.396 757.918 -294.572 660.527 169.068 635.912C632.709 611.297 748.689 380.385 428.006 120.594C107.323 -139.196 63.8125 -41.815 330.536 337.928Z" stroke="#404040" stroke-width="0.840798" stroke-miterlimit="10"/>
<path d="M323.626 351.124C537.743 683.343 431.951 893.915 87.4681 821.236C-257.015 748.558 -217.379 659.825 176.292 623.08C569.963 586.336 675.755 375.765 412.45 152.969C149.145 -69.8275 109.5 18.5354 323.626 351.124Z" stroke="#404040" stroke-width="0.840798" stroke-miterlimit="10"/>
<path d="M316.401 363.957C483.628 651.426 388.024 841.657 103.023 788.864C-181.978 736.071 -146.226 655.616 183.505 609.506C513.236 563.395 608.527 373.175 396.883 184.599C185.24 -3.97664 149.174 76.4888 316.401 363.957Z" stroke="#404040" stroke-width="0.840798" stroke-miterlimit="10"/>
<path d="M309.497 377.151C435.236 622.654 349.829 792.914 118.586 756.862C-112.649 721.18 -80.4582 649.363 190.421 596.682C461.301 544.001 546.717 374.111 381.333 216.971C215.95 59.831 183.445 131.659 309.497 377.151Z" stroke="#404040" stroke-width="0.840798" stroke-miterlimit="10"/>
<path d="M302.264 389.983C392.231 596.294 317.012 746.214 134.132 724.489C-48.7473 702.763 -20.4221 639.964 197.322 583.487C415.066 527.009 490.598 377.078 365.454 248.981C240.309 120.883 212.307 184.042 302.264 389.983Z" stroke="#404040" stroke-width="0.840798" stroke-miterlimit="10"/>
<path d="M295.363 403.18C355.264 572.703 290.234 702.283 150.011 692.48C9.78815 682.677 34.2298 628.156 204.859 570.275C375.496 512.765 440.527 383.185 350.211 280.975C259.895 178.765 235.462 233.656 295.363 403.18Z" stroke="#404040" stroke-width="0.840798" stroke-miterlimit="10"/>
<path d="M288.144 416.382C323.704 552.262 268.549 661.512 165.258 660.487C61.9681 659.463 82.8485 613.58 211.773 557.45C340.698 501.321 395.54 392.082 334.659 313.345C273.778 234.608 252.897 280.492 288.144 416.382Z" stroke="#404040" stroke-width="0.840798" stroke-miterlimit="10"/>
<path d="M281.23 429.205C297.843 533.855 252.884 623.135 181.133 628.475C109.382 633.814 126.379 596.209 218.688 544.626C311.311 493.033 355.956 403.764 318.785 345.356C281.614 286.949 264.617 324.554 281.23 429.205Z" stroke="#404040" stroke-width="0.840798" stroke-miterlimit="10"/>
<path d="M274.008 442.411C277.076 518.617 242.618 587.546 196.691 596.475C150.754 605.034 163.876 576.077 225.904 531.424C287.932 486.771 322.389 417.842 303.221 377.36C284.054 336.877 270.941 366.205 274.008 442.411Z" stroke="#404040" stroke-width="0.840798" stroke-miterlimit="10"/>
<path d="M267.096 455.233C262.647 505.758 238.073 554.727 212.558 564.092C187.043 573.457 195.976 553.158 233.125 518.219C270.273 483.28 294.542 434.691 287.662 409.36C280.782 384.028 271.544 404.708 267.096 455.233Z" stroke="#404040" stroke-width="0.840798" stroke-miterlimit="10"/>
<path d="M259.877 468.437C253.315 496.066 238.929 524.695 227.806 532.101C216.682 539.508 222.046 527.476 239.726 505.406C257.406 483.336 271.792 454.707 271.797 441.742C271.803 428.777 266.439 440.808 259.877 468.437Z" stroke="#404040" stroke-width="0.840798" stroke-miterlimit="10"/>
</mask>
<g mask="url(#mask0_1_16633)">
<g opacity="0.5">
<path d="M-155.81 -261.271H1079.42V1196.5H-155.81V-261.271Z" fill="url(#paint0_linear_1_16633)"/>
<path d="M-155.81 -261.271H1079.42V1196.5H-155.81V-261.271Z" fill="url(#paint1_linear_1_16633)"/>
</g>
</g>
<defs>
<linearGradient id="paint0_linear_1_16633" x1="306.22" y1="165.396" x2="568.093" y2="725.187" gradientUnits="userSpaceOnUse">
<stop stop-color="#04B0C0"/>
<stop offset="1" stop-color="#04B0C0" stop-opacity="0"/>
</linearGradient>
<linearGradient id="paint1_linear_1_16633" x1="461.804" y1="-261.271" x2="461.804" y2="1196.5" gradientUnits="userSpaceOnUse">
<stop stop-color="#04B0C0"/>
<stop offset="1" stop-color="#04B0C0" stop-opacity="0"/>
</linearGradient>
</defs>
</svg>
