<svg width="309" height="160" viewBox="0 0 309 160" fill="none" xmlns="http://www.w3.org/2000/svg">
<g opacity="0.5">
<mask id="mask0_1_16374" style="mask-type:alpha" maskUnits="userSpaceOnUse" x="6" y="-56" width="335" height="259">
<path d="M226.975 48.8435C335.558 157.439 288.47 223.471 121.56 196.21C-45.3497 168.949 -27.5087 141.098 161.241 134.058C349.99 127.019 397.206 60.9849 266.655 -13.3079C136.104 -87.6007 118.391 -59.7524 226.975 48.8435Z" stroke="#404040" stroke-width="1.01692" stroke-miterlimit="10"/>
<path d="M224.164 52.6165C311.332 147.622 268.263 207.839 128.023 187.055C-12.2167 166.271 3.91923 140.896 164.184 130.388C324.449 119.88 367.517 59.6629 260.324 -4.05056C153.132 -67.764 136.993 -42.4947 224.164 52.6165Z" stroke="#404040" stroke-width="1.01692" stroke-miterlimit="10"/>
<path d="M221.221 56.2872C289.3 138.495 250.379 192.896 134.354 177.798C18.3294 162.701 32.8843 139.693 167.119 126.507C301.353 113.321 340.146 58.9231 253.986 4.99572C167.825 -48.9316 153.142 -25.9208 221.221 56.2872Z" stroke="#404040" stroke-width="1.01692" stroke-miterlimit="10"/>
<path d="M218.409 60.0604C269.598 130.267 234.828 178.957 140.688 168.647C46.552 158.443 59.6571 137.905 169.933 122.84C280.209 107.775 314.982 59.1909 247.654 14.2534C180.326 -30.6842 167.093 -10.1435 218.409 60.0604Z" stroke="#404040" stroke-width="1.01692" stroke-miterlimit="10"/>
<path d="M215.467 63.7299C252.092 122.729 221.471 165.602 147.02 159.389C72.5688 153.176 84.1001 135.217 172.744 119.066C261.389 102.915 292.138 60.0395 241.191 23.4072C190.245 -13.2251 178.845 4.83656 215.467 63.7299Z" stroke="#404040" stroke-width="1.01692" stroke-miterlimit="10"/>
<path d="M212.656 67.5034C237.042 115.982 210.568 153.038 153.483 150.235C96.3981 147.432 106.348 131.84 175.812 115.288C245.279 98.8416 271.753 61.7854 234.985 32.5562C198.217 3.32709 188.271 19.0245 212.656 67.5034Z" stroke="#404040" stroke-width="1.01692" stroke-miterlimit="10"/>
<path d="M209.718 71.2784C224.195 110.136 201.74 141.379 159.691 141.086C117.641 140.793 126.141 127.671 178.627 111.62C231.113 95.5686 253.439 64.3292 228.654 41.8127C203.869 19.2963 195.369 32.4177 209.718 71.2784Z" stroke="#404040" stroke-width="1.01692" stroke-miterlimit="10"/>
<path d="M206.902 74.9452C213.665 104.872 195.362 130.404 166.152 131.931C136.942 133.458 143.861 122.704 181.441 107.952C219.148 93.1983 237.323 67.6697 222.191 50.9668C207.058 34.2639 200.139 45.018 206.902 74.9452Z" stroke="#404040" stroke-width="1.01692" stroke-miterlimit="10"/>
<path d="M203.962 78.7218C205.211 100.515 191.184 120.226 172.486 122.78C153.785 125.228 159.127 116.947 184.379 104.177C209.631 91.4077 223.658 71.6959 215.855 60.1191C208.052 48.5422 202.714 56.929 203.962 78.7218Z" stroke="#404040" stroke-width="1.01692" stroke-miterlimit="10"/>
<path d="M201.148 82.3888C199.337 96.8376 189.333 110.841 178.946 113.519C168.558 116.198 172.195 110.393 187.318 100.401C202.442 90.4095 212.322 76.5145 209.521 69.2704C206.72 62.0263 202.959 67.9401 201.148 82.3888Z" stroke="#404040" stroke-width="1.01692" stroke-miterlimit="10"/>
<path d="M198.209 86.1652C195.538 94.0663 189.681 102.253 185.153 104.371C180.625 106.489 182.808 103.049 190.006 96.7373C197.203 90.4259 203.06 82.2389 203.062 78.5312C203.064 74.8236 200.881 78.2641 198.209 86.1652Z" stroke="#404040" stroke-width="1.01692" stroke-miterlimit="10"/>
</mask>
<g mask="url(#mask0_1_16374)">
<rect x="34.2363" y="-147.822" width="502.865" height="502.865" fill="#04B0C0"/>
</g>
</g>
</svg>
