<svg xmlns="http://www.w3.org/2000/svg" fill="none" viewBox="2.5 2 20 20"><path fill-rule="evenodd" clip-rule="evenodd" d="M2.83482 7.875C2.29482 9.002 2.48482 10.321 2.86482 12.958L3.14282 14.895C3.62982 18.283 3.87382 19.976 5.04882 20.988C6.22382 22 7.94682 22 11.3938 22H13.6058C17.0528 22 18.7758 22 19.9508 20.988C21.1258 19.976 21.3698 18.283 21.8568 14.895L22.1358 12.958C22.5158 10.321 22.7058 9.002 22.1648 7.875C21.6238 6.748 20.4738 6.062 18.1728 4.692L16.7878 3.867C14.6998 2.622 13.6538 2 12.4998 2C11.3458 2 10.3008 2.622 8.21182 3.867L6.82682 4.692C4.52682 6.062 3.37582 6.748 2.83482 7.875ZM8.74982 18C8.74982 17.8011 8.82884 17.6103 8.96949 17.4697C9.11014 17.329 9.30091 17.25 9.49982 17.25H15.4998C15.6987 17.25 15.8895 17.329 16.0302 17.4697C16.1708 17.6103 16.2498 17.8011 16.2498 18C16.2498 18.1989 16.1708 18.3897 16.0302 18.5303C15.8895 18.671 15.6987 18.75 15.4998 18.75H9.49982C9.30091 18.75 9.11014 18.671 8.96949 18.5303C8.82884 18.3897 8.74982 18.1989 8.74982 18Z" fill="#04B0C0"></path></svg>