<svg width="18" height="19" viewBox="0 0 18 19" fill="none" xmlns="http://www.w3.org/2000/svg">
<path fill-rule="evenodd" clip-rule="evenodd" d="M12.6828 0.823242C11.2577 0.823242 9.9937 1.51069 9.20654 2.57107C9.9937 3.63145 11.2577 4.31889 12.6828 4.31889C13.6445 4.31889 14.5328 4.00577 15.2508 3.47621C14.7195 4.19177 14.4054 5.07713 14.4054 6.0356C14.4054 7.45596 15.0951 8.71565 16.1591 9.50014C17.2231 8.71565 17.9129 7.45596 17.9129 6.0356C17.9129 4.61536 17.2231 3.35557 16.1591 2.57107C15.3718 1.51069 14.1079 0.823242 12.6828 0.823242Z" fill="#4DC2C6"/>
<path fill-rule="evenodd" clip-rule="evenodd" d="M5.73006 0.823242C7.15516 0.823242 8.41912 1.51069 9.2064 2.57107C8.41912 3.63145 7.15516 4.31889 5.73006 4.31889C4.76835 4.31889 3.8801 4.00577 3.16211 3.47621C3.6934 4.19177 4.00757 5.07713 4.00757 6.0356C4.00757 7.45596 3.31769 8.71565 2.25384 9.50014C1.18976 8.71565 0.5 7.45596 0.5 6.0356C0.5 4.61536 1.18976 3.35557 2.25384 2.57107C3.041 1.51069 4.30497 0.823242 5.73006 0.823242Z" fill="#EC6A56"/>
<path fill-rule="evenodd" clip-rule="evenodd" d="M12.6828 18.1769C11.2577 18.1769 9.9937 17.4895 9.20654 16.4291C9.9937 15.3687 11.2577 14.6812 12.6828 14.6812C13.6445 14.6812 14.5328 14.9944 15.2508 15.5239C14.7195 14.8084 14.4054 13.923 14.4054 12.9645C14.4054 11.5443 15.0951 10.2846 16.1591 9.5C17.2231 10.2846 17.9129 11.5443 17.9129 12.9645C17.9129 14.3849 17.2231 15.6446 16.1591 16.4291C15.3718 17.4895 14.1079 18.1769 12.6828 18.1769Z" fill="#9EBC2E"/>
<path fill-rule="evenodd" clip-rule="evenodd" d="M5.73006 18.1769C7.15516 18.1769 8.41912 17.4895 9.2064 16.4291C8.41912 15.3687 7.15516 14.6812 5.73006 14.6812C4.76835 14.6812 3.8801 14.9944 3.16211 15.5239C3.6934 14.8084 4.00757 13.923 4.00757 12.9645C4.00757 11.5443 3.31769 10.2846 2.25384 9.5C1.18976 10.2846 0.5 11.5443 0.5 12.9645C0.5 14.3849 1.18976 15.6446 2.25384 16.4291C3.041 17.4895 4.30497 18.1769 5.73006 18.1769Z" fill="#FAAF40"/>
</svg>
