<svg xmlns="http://www.w3.org/2000/svg" fill="none" viewBox="2.5 2 20 20"><path d="M12.5 2C7.079 2 2.5 6.579 2.5 12C2.5 17.421 7.079 22 12.5 22C17.921 22 22.5 17.421 22.5 12C22.5 6.579 17.921 2 12.5 2ZM12.5 7C14.227 7 15.5 8.272 15.5 10C15.5 11.728 14.227 13 12.5 13C10.774 13 9.5 11.728 9.5 10C9.5 8.272 10.774 7 12.5 7ZM7.394 16.772C8.291 15.452 9.787 14.572 11.5 14.572H13.5C15.214 14.572 16.709 15.452 17.606 16.772C16.328 18.14 14.515 19 12.5 19C10.485 19 8.672 18.14 7.394 16.772Z" fill="#A0A4B0"></path></svg>