<svg width="25" height="24" viewBox="0 0 25 24" fill="none" xmlns="http://www.w3.org/2000/svg">
<path d="M6.7215 4.60054C7.16408 4.30492 7.63072 4.04701 8.1165 3.82954C9.4885 3.21454 10.1745 2.90754 11.0865 3.49954C11.9995 4.08954 11.9995 5.05954 11.9995 6.99954V8.49954C11.9995 10.3855 11.9995 11.3275 12.5855 11.9135C13.1715 12.4995 14.1135 12.4995 15.9995 12.4995H17.4995C19.4395 12.4995 20.4095 12.4995 20.9995 13.4115C21.5915 14.3245 21.2845 15.0105 20.6695 16.3815C19.7902 18.3452 18.2703 19.9523 16.3586 20.9396C14.447 21.9269 12.2568 22.2361 10.1465 21.8165C8.30376 21.45 6.61109 20.5452 5.28254 19.2167C3.95398 17.8881 3.0492 16.1955 2.6826 14.3527C2.316 12.51 2.50405 10.5999 3.22296 8.86407C3.94187 7.12821 5.15937 5.64449 6.7215 4.60054Z" fill="#9AA0AA"/>
<path d="M21.946 7.06883C21.5422 6.04749 20.9332 5.11985 20.1566 4.34326C19.38 3.56667 18.4523 2.95764 17.431 2.55383C15.889 1.94683 14.5 3.34383 14.5 4.99983V8.99983C14.5 9.26504 14.6054 9.5194 14.7929 9.70693C14.9804 9.89447 15.2348 9.99983 15.5 9.99983H19.5C21.157 9.99983 22.553 8.60983 21.946 7.06883Z" fill="#9AA0AA"/>
</svg>
