<svg xmlns="http://www.w3.org/2000/svg" fill="none" viewBox="0.7 0.21 38.15 38.33"><path d="M0.703857 38.5452L3.39837 28.7016C1.73566 25.8202 0.861982 22.5539 0.863579 19.2045C0.868371 8.73309 9.38953 0.211914 19.8593 0.211914C24.9401 0.213511 29.7094 2.19247 33.2967 5.78302C36.8825 9.37358 38.8566 14.1461 38.855 19.2221C38.8502 29.695 30.3291 38.2162 19.8593 38.2162C16.6808 38.2146 13.5487 37.4176 10.7743 35.9034L0.703857 38.5452ZM11.2407 32.4646C13.9176 34.0539 16.4732 35.0058 19.8529 35.0074C28.5546 35.0074 35.643 27.9253 35.6478 19.2189C35.651 10.4948 28.5961 3.42233 19.8657 3.41914C11.1577 3.41914 4.07399 10.5012 4.07079 19.2061C4.0692 22.7599 5.11058 25.4209 6.85954 28.2048L5.26392 34.0315L11.2407 32.4646ZM29.4282 23.7374C29.31 23.5393 28.9938 23.4211 28.5178 23.1832C28.0435 22.9452 25.7099 21.7968 25.2739 21.6386C24.8394 21.4805 24.5232 21.4007 24.2053 21.8766C23.8891 22.351 22.9787 23.4212 22.7024 23.7374C22.426 24.0537 22.1481 24.0936 21.6737 23.8556C21.1994 23.6176 19.6692 23.1177 17.8564 21.4997C16.446 20.2411 15.4925 18.687 15.2162 18.211C14.9399 17.7366 15.1874 17.4795 15.4238 17.2431C15.6379 17.0307 15.8982 16.6889 16.1362 16.4109C16.3774 16.1362 16.4556 15.9382 16.6154 15.6203C16.7735 15.3041 16.6952 15.0262 16.5754 14.7882C16.4556 14.5518 15.5069 12.215 15.1124 11.2647C14.7258 10.3399 14.3345 10.4645 14.0438 10.4501L13.1334 10.4341C12.8172 10.4341 12.3029 10.5523 11.8684 11.0283C11.434 11.5043 10.2073 12.6511 10.2073 14.9878C10.2073 17.3246 11.9083 19.5814 12.1447 19.8977C12.3827 20.2139 15.4909 25.0088 20.2522 27.0644C21.3846 27.5532 22.2695 27.8455 22.9579 28.0643C24.0951 28.4252 25.1301 28.3741 25.9479 28.2527C26.8599 28.117 28.7558 27.1043 29.1519 25.9959C29.548 24.8858 29.548 23.9355 29.4282 23.7374Z" fill="#25D366"></path></svg>