<svg xmlns="http://www.w3.org/2000/svg" fill="none" viewBox="0 0 73.48 22.72"><path fill-rule="evenodd" clip-rule="evenodd" d="M24.7811 0C24.0504 0 23.4023 0.352476 22.9987 0.896165C23.4023 1.43985 24.0504 1.79233 24.7811 1.79233C25.2742 1.79233 25.7297 1.63178 26.0978 1.36026C25.8254 1.72715 25.6643 2.1811 25.6643 2.67254C25.6643 3.4008 26.018 4.04668 26.5635 4.44891C27.109 4.04668 27.4628 3.4008 27.4628 2.67254C27.4628 1.94434 27.109 1.2984 26.5635 0.896165C26.1598 0.352476 25.5118 0 24.7811 0Z" fill="#4DC2C6"></path><path fill-rule="evenodd" clip-rule="evenodd" d="M21.2164 0C21.9471 0 22.5952 0.352476 22.9988 0.896165C22.5952 1.43985 21.9471 1.79233 21.2164 1.79233C20.7233 1.79233 20.2679 1.63178 19.8997 1.36026C20.1721 1.72715 20.3332 2.1811 20.3332 2.67254C20.3332 3.4008 19.9795 4.04668 19.434 4.44891C18.8885 4.04668 18.5348 3.4008 18.5348 2.67254C18.5348 1.94434 18.8885 1.2984 19.434 0.896165C19.8376 0.352476 20.4857 0 21.2164 0Z" fill="#EC6A56"></path><path fill-rule="evenodd" clip-rule="evenodd" d="M24.7811 8.89813C24.0504 8.89813 23.4023 8.54566 22.9987 8.00197C23.4023 7.45828 24.0504 7.1058 24.7811 7.1058C25.2742 7.1058 25.7297 7.26635 26.0978 7.53787C25.8254 7.17098 25.6643 6.71703 25.6643 6.22559C25.6643 5.49739 26.018 4.85151 26.5635 4.44922C27.109 4.85151 27.4628 5.49739 27.4628 6.22559C27.4628 6.95385 27.109 7.59973 26.5635 8.00197C26.1598 8.54566 25.5118 8.89813 24.7811 8.89813Z" fill="#9EBC2E"></path><path fill-rule="evenodd" clip-rule="evenodd" d="M21.2164 8.89813C21.9471 8.89813 22.5952 8.54566 22.9988 8.00197C22.5952 7.45828 21.9471 7.1058 21.2164 7.1058C20.7233 7.1058 20.2679 7.26635 19.8997 7.53787C20.1721 7.17098 20.3332 6.71703 20.3332 6.22559C20.3332 5.49739 19.9795 4.85151 19.434 4.44922C18.8885 4.85151 18.5348 5.49739 18.5348 6.22559C18.5348 6.95385 18.8885 7.59973 19.434 8.00197C19.8376 8.54566 20.4857 8.89813 21.2164 8.89813Z" fill="#FAAF40"></path><path fill-rule="evenodd" clip-rule="evenodd" d="M0 0.617188H0.889403V9.11195H0V0.617188Z" fill="#414142"></path><path fill-rule="evenodd" clip-rule="evenodd" d="M11.5891 9.11169V3.25074C11.5891 1.5584 10.2044 0.173828 8.51209 0.173828H7.23896C5.54662 0.173828 4.16199 1.5584 4.16199 3.25074V9.11169H5.05145V3.25074C5.05145 2.04759 6.03581 1.06323 7.23896 1.06323H8.51209C9.71524 1.06323 10.6996 2.04759 10.6996 3.25074V9.11169H11.5891Z" fill="#414142"></path><path fill-rule="evenodd" clip-rule="evenodd" d="M53.3034 9.11169V3.25074C53.3034 1.5584 51.9188 0.173828 50.2264 0.173828H48.9533C47.2609 0.173828 45.8763 1.5584 45.8763 3.25074V9.11169H46.7657V3.25074C46.7657 2.04759 47.7501 1.06323 48.9533 1.06323H50.2264C51.4296 1.06323 52.414 2.04759 52.414 3.25074V9.11169H53.3034Z" fill="#414142"></path><path fill-rule="evenodd" clip-rule="evenodd" d="M36.9358 0.414062V5.61561C36.9358 7.50562 35.3894 9.05199 33.4994 9.05199C31.6094 9.05199 30.063 7.50562 30.063 5.61561V0.414062H30.9525V5.61561C30.9525 7.01644 32.0986 8.16253 33.4994 8.16253C34.9003 8.16253 36.0464 7.01644 36.0464 5.61561V0.414062H36.9358Z" fill="#414142"></path><path fill-rule="evenodd" clip-rule="evenodd" d="M15.4037 0.366211V10.6539C15.4037 11.7512 14.5059 12.649 13.4086 12.649H12.7861V13.5384H13.4086C14.9951 13.5384 16.2932 12.2404 16.2932 10.6539V0.366211H15.4037Z" fill="#414142"></path><path fill-rule="evenodd" clip-rule="evenodd" d="M39.8977 0.414839H40.7329L40.7863 1.53264C40.8198 1.46669 41.797 -0.411932 44.0656 0.404402L43.7353 1.05342C43.7353 1.05342 41.5273 0.296161 40.7871 2.66165V8.9096H39.8977V0.414839Z" fill="#414142"></path><path fill-rule="evenodd" clip-rule="evenodd" d="M59.8356 0.0869141C62.0894 0.0869141 63.9165 2.11239 63.9165 4.61091C63.9165 4.74133 63.9112 4.87039 63.9014 4.99802C61.4684 4.99802 59.0353 4.99802 56.6022 4.99802C56.7742 6.81324 58.1593 8.26579 59.98 8.32083C60.7506 8.34414 61.752 8.12713 62.8819 7.2847L63.4262 7.74707C63.4262 7.74707 62.2175 9.14748 60.0306 9.13769C57.4754 9.12619 55.7547 7.12723 55.7547 4.61091C55.7547 2.11239 57.5818 0.0869141 59.8356 0.0869141ZM63.0732 4.27451H56.598C56.7502 2.42234 58.1514 0.876736 59.8457 0.876736C61.54 0.876736 62.9216 2.42234 63.0732 4.27451Z" fill="#414142"></path><path fill-rule="evenodd" clip-rule="evenodd" d="M67.3687 13.4864H68.2581L73.4804 0.0869141H72.591L69.5167 7.97511L66.4423 0.0869141H65.5529L69.0719 9.11623L67.3687 13.4864Z" fill="#414142"></path><path d="M68.7718 22.7236C68.3647 22.7236 67.9701 22.6667 67.5881 22.5528C67.2111 22.4389 66.912 22.2879 66.6908 22.0997L67.0301 21.3496C67.2463 21.5179 67.5102 21.6566 67.8218 21.7655C68.1385 21.8695 68.4551 21.9215 68.7718 21.9215C69.1639 21.9215 69.4554 21.8596 69.6464 21.7358C69.8425 21.612 69.9405 21.4486 69.9405 21.2456C69.9405 21.097 69.8852 20.9757 69.7746 20.8816C69.6691 20.7826 69.5333 20.7059 69.3675 20.6514C69.2016 20.5969 68.9754 20.535 68.6889 20.4657C68.2868 20.3716 67.96 20.2776 67.7087 20.1835C67.4624 20.0894 67.2488 19.9433 67.0678 19.7453C66.8919 19.5423 66.8039 19.2699 66.8039 18.9283C66.8039 18.6411 66.8818 18.3811 67.0377 18.1484C67.1985 17.9107 67.4373 17.7226 67.7539 17.5839C68.0756 17.4453 68.4677 17.376 68.9302 17.376C69.2519 17.376 69.5685 17.4156 69.8802 17.4948C70.1918 17.574 70.4607 17.6879 70.6869 17.8365L70.3778 18.5866C70.1466 18.4529 69.9053 18.3514 69.654 18.2821C69.4027 18.2128 69.1589 18.1781 68.9226 18.1781C68.5356 18.1781 68.2465 18.2425 68.0555 18.3712C67.8696 18.5 67.7766 18.6708 67.7766 18.8837C67.7766 19.0323 67.8293 19.1536 67.9349 19.2476C68.0455 19.3417 68.1837 19.416 68.3496 19.4705C68.5155 19.5249 68.7417 19.5868 69.0282 19.6561C69.4203 19.7453 69.742 19.8394 69.9933 19.9384C70.2446 20.0325 70.4582 20.1785 70.6342 20.3766C70.8151 20.5746 70.9056 20.842 70.9056 21.1787C70.9056 21.4659 70.8252 21.7259 70.6643 21.9586C70.5085 22.1913 70.2697 22.377 69.948 22.5156C69.6263 22.6543 69.2343 22.7236 68.7718 22.7236Z" fill="#18B1BF"></path><path d="M59.6506 18.2672H57.9014V17.4502H62.3801V18.2672H60.6308V22.6493H59.6506V18.2672Z" fill="#18B1BF"></path><path d="M52.5202 22.6493L51.442 21.1267C51.3968 21.1317 51.3289 21.1342 51.2385 21.1342H50.0472V22.6493H49.067V17.4502H51.2385C51.6959 17.4502 52.093 17.5245 52.4298 17.6731C52.7716 17.8216 53.0329 18.0345 53.2139 18.3118C53.3948 18.5891 53.4853 18.9184 53.4853 19.2996C53.4853 19.6908 53.3873 20.0275 53.1913 20.3097C53.0003 20.592 52.7238 20.8024 52.3619 20.9411L53.5758 22.6493H52.5202ZM52.4976 19.2996C52.4976 18.9679 52.387 18.7129 52.1659 18.5346C51.9447 18.3564 51.6205 18.2672 51.1932 18.2672H50.0472V20.3394H51.1932C51.6205 20.3394 51.9447 20.2503 52.1659 20.0721C52.387 19.8889 52.4976 19.6314 52.4976 19.2996Z" fill="#18B1BF"></path><path d="M41.1141 22.7236C40.5762 22.7236 40.0911 22.6097 39.6589 22.3819C39.2266 22.1492 38.8873 21.8299 38.641 21.4238C38.3947 21.0129 38.2715 20.5548 38.2715 20.0498C38.2715 19.5447 38.3947 19.0892 38.641 18.6832C38.8873 18.2722 39.2266 17.9528 39.6589 17.7251C40.0911 17.4923 40.5762 17.376 41.1141 17.376C41.6519 17.376 42.137 17.4923 42.5692 17.7251C43.0015 17.9528 43.3408 18.2697 43.5871 18.6757C43.8334 19.0818 43.9566 19.5398 43.9566 20.0498C43.9566 20.5598 43.8334 21.0178 43.5871 21.4238C43.3408 21.8299 43.0015 22.1492 42.5692 22.3819C42.137 22.6097 41.6519 22.7236 41.1141 22.7236ZM41.1141 21.8769C41.4659 21.8769 41.7826 21.8001 42.0641 21.6467C42.3456 21.4882 42.5667 21.2703 42.7276 20.9931C42.8884 20.7108 42.9689 20.3964 42.9689 20.0498C42.9689 19.7032 42.8884 19.3912 42.7276 19.114C42.5667 18.8317 42.3456 18.6139 42.0641 18.4604C41.7826 18.3019 41.4659 18.2227 41.1141 18.2227C40.7622 18.2227 40.4455 18.3019 40.164 18.4604C39.8825 18.6139 39.6614 18.8317 39.5005 19.114C39.3397 19.3912 39.2592 19.7032 39.2592 20.0498C39.2592 20.3964 39.3397 20.7108 39.5005 20.9931C39.6614 21.2703 39.8825 21.4882 40.164 21.6467C40.4455 21.8001 40.7622 21.8769 41.1141 21.8769Z" fill="#18B1BF"></path><path d="M31.2776 17.4502C31.735 17.4502 32.1321 17.5245 32.4689 17.6731C32.8107 17.8216 33.0721 18.0345 33.253 18.3118C33.434 18.5891 33.5245 18.9184 33.5245 19.2996C33.5245 19.6759 33.434 20.0052 33.253 20.2875C33.0721 20.5647 32.8107 20.7777 32.4689 20.9262C32.1321 21.0747 31.735 21.149 31.2776 21.149H30.0863V22.6493H29.1061V17.4502H31.2776ZM31.2323 20.332C31.6596 20.332 31.9838 20.2429 32.205 20.0646C32.4261 19.8864 32.5367 19.6314 32.5367 19.2996C32.5367 18.9679 32.4261 18.7129 32.205 18.5346C31.9838 18.3564 31.6596 18.2672 31.2323 18.2672H30.0863V20.332H31.2323Z" fill="#18B1BF"></path><path d="M22.9728 22.6493L21.8946 21.1267C21.8494 21.1317 21.7815 21.1342 21.6911 21.1342H20.4998V22.6493H19.5196V17.4502H21.6911C22.1485 17.4502 22.5456 17.5245 22.8824 17.6731C23.2242 17.8216 23.4855 18.0345 23.6665 18.3118C23.8475 18.5891 23.9379 18.9184 23.9379 19.2996C23.9379 19.6908 23.8399 20.0275 23.6439 20.3097C23.4529 20.592 23.1764 20.8024 22.8145 20.9411L24.0284 22.6493H22.9728ZM22.9502 19.2996C22.9502 18.9679 22.8396 18.7129 22.6185 18.5346C22.3973 18.3564 22.0731 18.2672 21.6458 18.2672H20.4998V20.3394H21.6458C22.0731 20.3394 22.3973 20.2503 22.6185 20.0721C22.8396 19.8889 22.9502 19.6314 22.9502 19.2996Z" fill="#18B1BF"></path><path d="M13.0403 17.4502H14.0205V22.6493H13.0403V17.4502Z" fill="#18B1BF"></path><path d="M6.74437 21.4461H4.10542L3.58517 22.6493H2.57483L4.94989 17.4502H5.91499L8.29759 22.6493H7.27216L6.74437 21.4461ZM6.42016 20.6885L5.4249 18.4158L4.43718 20.6885H6.42016Z" fill="#18B1BF"></path></svg>