<svg xmlns="http://www.w3.org/2000/svg" fill="none" viewBox="4.62 12.62 212.47 37.53">
<path d="M64.0359 13.6C67.1905 13.6 69.9292 14.12 72.2519 15.16C74.6092 16.2 76.4119 17.6907 77.6599 19.632C78.9079 21.5733 79.5319 23.8787 79.5319 26.548C79.5319 29.1827 78.9079 31.488 77.6599 33.464C76.4119 35.4053 74.6092 36.896 72.2519 37.936C69.9292 38.976 67.1905 39.496 64.0359 39.496H55.8199V50H49.0599V13.6H64.0359ZM63.7239 33.776C66.6705 33.776 68.9065 33.152 70.4319 31.904C71.9572 30.656 72.7199 28.8707 72.7199 26.548C72.7199 24.2253 71.9572 22.44 70.4319 21.192C68.9065 19.944 66.6705 19.32 63.7239 19.32H55.8199V33.776H63.7239ZM92.6001 19.32H80.5361V13.6H111.424V19.32H99.3601V50H92.6001V19.32ZM116.497 13.6H123.257V50H116.497V13.6ZM166.539 50L166.487 25.872L154.527 45.84H151.511L139.551 26.184V50H133.103V13.6H138.667L153.123 37.728L167.319 13.6H172.883L172.935 50H166.539ZM206.375 41.576H188.175L184.587 50H177.619L193.999 13.6H200.655L217.087 50H210.015L206.375 41.576ZM204.139 36.272L197.275 20.36L190.463 36.272H204.139Z" fill="#04B0C0"/>
<path fill-rule="evenodd" clip-rule="evenodd" d="M16.389 15.0358C14.472 16.9528 13.6965 19.5778 14.064 22.063C16.5492 22.4306 19.1742 21.655 21.0912 19.738C22.3848 18.4444 23.1586 16.8282 23.4121 15.15C23.66 16.8273 24.4283 18.4408 25.7176 19.7301C27.6282 21.6407 30.2506 22.4074 32.737 22.0314C33.113 19.545 32.3465 16.9225 30.4359 15.0119C28.5254 13.1014 25.9028 12.3348 23.4163 12.7107C20.9309 12.3433 18.306 13.1188 16.389 15.0358Z" fill="#4DC2C6"/>
<path fill-rule="evenodd" clip-rule="evenodd" d="M7.03528 24.3885C8.95227 22.4716 11.5772 21.6961 14.0626 22.0634C14.43 24.5488 13.6545 27.1738 11.7375 29.0908C10.4438 30.3844 8.82779 31.1581 7.14965 31.4115C8.82686 31.6594 10.4404 32.4278 11.7297 33.7171C13.6403 35.6277 14.4068 38.2501 14.031 40.7365C11.5444 41.1125 8.92208 40.3459 7.01147 38.4353C5.10102 36.5248 4.33423 33.9024 4.71031 31.4157C4.34279 28.9305 5.11829 26.3055 7.03528 24.3885Z" fill="#EC6A56"/>
<path fill-rule="evenodd" clip-rule="evenodd" d="M39.7307 38.3795C37.8137 40.2965 35.1888 41.072 32.7035 40.7045C32.336 38.2193 33.1115 35.5943 35.0285 33.6773C36.3222 32.3837 37.9384 31.6099 39.6165 31.3564C37.9393 31.1085 36.3257 30.3402 35.0364 29.0509C33.126 27.1404 32.3594 24.5181 32.7351 22.0315C35.2218 21.6557 37.8442 22.4222 39.7547 24.3326C41.6653 26.2432 42.4318 28.8657 42.0559 31.3522C42.4232 33.8376 41.6477 36.4626 39.7307 38.3795Z" fill="#9EBC2E"/>
<path fill-rule="evenodd" clip-rule="evenodd" d="M30.379 47.7323C32.296 45.8153 33.0715 43.1903 32.7041 40.7049C30.2187 40.3375 27.5938 41.113 25.6768 43.03C24.3831 44.3237 23.6095 45.9398 23.356 47.6179C23.1081 45.9407 22.3398 44.3271 21.0505 43.0378C19.14 41.1274 16.5176 40.3609 14.0311 40.7365C13.6551 43.2233 14.4218 45.8456 16.3322 47.7561C18.2428 49.6667 20.8652 50.4333 23.3518 50.0572C25.837 50.4248 28.462 49.6492 30.379 47.7323Z" fill="#FAAF40"/>
</svg>