<svg xmlns="http://www.w3.org/2000/svg" fill="none" viewBox="3.69 8.83 136.33 24.15">
<path d="M41.6346 8.82808C43.6623 8.82808 45.4227 9.16233 46.9157 9.83083C48.431 10.4993 49.5897 11.4575 50.3919 12.7054C51.1941 13.9532 51.5952 15.4351 51.5952 17.1509C51.5952 18.8444 51.1941 20.3263 50.3919 21.5964C49.5897 22.8443 48.431 23.8025 46.9157 24.471C45.4227 25.1395 43.6623 25.4737 41.6346 25.4737H36.3534V32.2256H32.0081V8.82808H41.6346ZM41.434 21.797C43.3281 21.797 44.7654 21.3959 45.7458 20.5937C46.7263 19.7915 47.2165 18.6439 47.2165 17.1509C47.2165 15.6579 46.7263 14.5103 45.7458 13.7081C44.7654 12.9059 43.3281 12.5048 41.434 12.5048H36.3534V21.797H41.434ZM59.9953 12.5048H52.2407V8.82808H72.0952V12.5048H64.3406V32.2256H59.9953V12.5048ZM75.3562 8.82808H79.7015V32.2256H75.3562V8.82808ZM107.522 32.2256L107.489 16.7164L99.8011 29.5516H97.8625L90.1747 16.9169V32.2256H86.03V8.82808H89.6065L98.8986 24.3373L108.024 8.82808H111.6L111.634 32.2256H107.522ZM133.128 26.8107H121.43L119.123 32.2256H114.644L125.173 8.82808H129.452L140.014 32.2256H135.468L133.128 26.8107ZM131.691 23.4014L127.279 13.1733L122.9 23.4014H131.691Z" fill="white"/>
<path fill-rule="evenodd" clip-rule="evenodd" d="M11.2519 10.4034C10.0197 11.6357 9.52124 13.323 9.75748 14.9204C11.355 15.1567 13.0423 14.6582 14.2745 13.426C15.106 12.5944 15.6034 11.5556 15.7663 10.4769C15.9257 11.555 16.4196 12.5921 17.2483 13.4209C18.4764 14.649 20.162 15.1418 21.7603 14.9001C22.0019 13.3019 21.5093 11.6162 20.2811 10.388C19.0531 9.16003 17.3673 8.66724 15.769 8.90888C14.1715 8.67274 12.4842 9.17123 11.2519 10.4034Z" fill="white"/>
<path fill-rule="evenodd" clip-rule="evenodd" d="M5.24144 16.4153C6.47365 15.1831 8.16095 14.6846 9.75853 14.9207C9.99467 16.5183 9.49618 18.2056 8.26397 19.4378C7.43242 20.2694 6.39364 20.7667 5.31495 20.9296C6.39304 21.0889 7.43022 21.5828 8.25897 22.4116C9.48708 23.6397 9.97977 25.3254 9.73823 26.9236C8.13985 27.1653 6.45425 26.6725 5.22613 25.4444C3.99812 24.2164 3.50523 22.5307 3.74697 20.9323C3.51073 19.3348 4.00922 17.6475 5.24144 16.4153Z" fill="white"/>
<path fill-rule="evenodd" clip-rule="evenodd" d="M26.2597 25.4079C25.0274 26.6401 23.3401 27.1386 21.7427 26.9024C21.5064 25.3049 22.0049 23.6176 23.2371 22.3854C24.0687 21.5538 25.1076 21.0565 26.1862 20.8935C25.1082 20.7342 24.071 20.2403 23.2422 19.4116C22.0142 18.1835 21.5214 16.498 21.763 14.8996C23.3613 14.658 25.047 15.1507 26.2751 16.3787C27.5032 17.6068 27.9959 19.2925 27.7542 20.8908C27.9904 22.4884 27.4919 24.1757 26.2597 25.4079Z" fill="white"/>
<path fill-rule="evenodd" clip-rule="evenodd" d="M20.2492 31.4198C21.4814 30.1876 21.9799 28.5003 21.7438 26.9027C20.1462 26.6665 18.4589 27.165 17.2267 28.3972C16.3951 29.2288 15.8978 30.2676 15.7349 31.3463C15.5756 30.2682 15.0817 29.231 14.2529 28.4022C13.0249 27.1742 11.3392 26.6815 9.74096 26.923C9.49931 28.5215 9.9921 30.2071 11.2201 31.4351C12.4482 32.6632 14.1338 33.156 15.7322 32.9142C17.3297 33.1505 19.017 32.652 20.2492 31.4198Z" fill="white"/>
</svg>