<svg viewBox="0 0 348 48" fill="none" xmlns="http://www.w3.org/2000/svg">
    <g opacity="0.3" stroke="#81D7DF" stroke-width="0.838292" stroke-miterlimit="10">
        <path d="M384.16 46.6289C343.603 46.6289 343.603 12.1463 303.107 12.1463C262.55 12.1463 262.55 46.6289 222.054 46.6289C181.497 46.6289 181.497 12.1463 141.001 12.1463C100.444 12.1463 100.444 46.6289 59.9474 46.6289C19.4509 46.6289 19.3907 12.1463 -21.1058 12.1463"/>
        <path d="M384.16 42.2109C343.603 42.2109 343.603 7.72829 303.107 7.72829C262.55 7.72829 262.55 42.2109 222.054 42.2109C181.497 42.2109 181.497 7.72829 141.001 7.72829C100.444 7.72829 100.444 42.2109 59.9474 42.2109C19.4509 42.2109 19.3907 7.72829 -21.1058 7.72829"/>
        <path d="M384.16 37.8467C343.603 37.8467 343.603 3.36404 303.107 3.36404C262.55 3.36404 262.55 37.8467 222.054 37.8467C181.497 37.8467 181.497 3.36404 141.001 3.36404C100.444 3.36404 100.444 37.8467 59.9474 37.8467C19.4509 37.8467 19.3907 3.36404 -21.1058 3.36404"/>
        <path d="M384.16 33.4287C343.603 33.4287 343.603 -1.05393 303.107 -1.05393C262.55 -1.05393 262.55 33.4287 222.054 33.4287C181.497 33.4287 181.497 -1.05393 141.001 -1.05393C100.444 -1.05393 100.444 33.4287 59.9474 33.4287C19.4509 33.4287 19.3907 -1.05393 -21.1058 -1.05393"/>
        <path d="M384.16 29.0107C343.603 29.0107 343.603 -5.4719 303.107 -5.4719C262.55 -5.4719 262.55 29.0107 222.054 29.0107C181.497 29.0107 181.497 -5.4719 141.001 -5.4719C100.444 -5.4719 100.444 29.0107 59.9474 29.0107C19.4509 29.0107 19.3907 -5.4719 -21.1058 -5.4719"/>
        <path d="M384.16 24.6465C343.603 24.6465 343.603 -9.83616 303.107 -9.83616C262.55 -9.83616 262.55 24.6465 222.054 24.6465C181.497 24.6465 181.497 -9.83616 141.001 -9.83616C100.444 -9.83616 100.444 24.6465 59.9474 24.6465C19.4509 24.6465 19.3907 -9.83616 -21.1058 -9.83616"/>
        <path d="M384.16 20.2275C343.603 20.2275 343.603 -14.2551 303.107 -14.2551C262.55 -14.2551 262.55 20.2275 222.054 20.2275C181.497 20.2275 181.497 -14.2551 141.001 -14.2551C100.444 -14.2551 100.444 20.2275 59.9474 20.2275C19.4509 20.2275 19.3907 -14.2551 -21.1058 -14.2551"/>
        <path d="M384.16 15.8643C343.603 15.8643 343.603 -18.6184 303.107 -18.6184C262.55 -18.6184 262.55 15.8643 222.054 15.8643C181.497 15.8643 181.497 -18.6184 141.001 -18.6184C100.444 -18.6184 100.444 15.8643 59.9474 15.8643C19.4509 15.8643 19.3907 -18.6184 -21.1058 -18.6184"/>
        <path d="M384.16 11.4453C343.603 11.4453 343.603 -23.0373 303.107 -23.0373C262.55 -23.0373 262.55 11.4453 222.054 11.4453C181.497 11.4453 181.497 -23.0373 141.001 -23.0373C100.444 -23.0373 100.444 11.4453 59.9474 11.4453C19.4509 11.4453 19.3907 -23.0373 -21.1058 -23.0373"/>
        <path d="M384.16 7.02734C343.603 7.02734 343.603 -27.4553 303.107 -27.4553C262.55 -27.4553 262.55 7.02734 222.054 7.02734C181.497 7.02734 181.497 -27.4553 141.001 -27.4553C100.444 -27.4553 100.444 7.02734 59.9474 7.02734C19.4509 7.02734 19.3907 -27.4553 -21.1058 -27.4553"/>
        <path d="M384.16 2.66309C343.603 2.66309 343.603 -31.8196 303.107 -31.8196C262.55 -31.8196 262.55 2.66309 222.054 2.66309C181.497 2.66309 181.497 -31.8196 141.001 -31.8196C100.444 -31.8196 100.444 2.66309 59.9474 2.66309C19.4509 2.66309 19.3907 -31.8196 -21.1058 -31.8196"/>
    </g>
</svg>