<svg width="168" height="35" viewBox="0 0 168 35" fill="none" xmlns="http://www.w3.org/2000/svg">
    <g opacity="0.5" stroke="#04B0C0" stroke-width="0.438897" stroke-miterlimit="10">
        <path d="M188.283 34.0215C166.689 34.0215 166.689 9.90775 145.127 9.90775C123.532 9.90775 123.532 34.0215 101.97 34.0215C80.3757 34.0215 80.3757 9.90775 58.8135 9.90775C37.2192 9.90775 37.2192 34.0215 15.6569 34.0215C-5.90538 34.0215 -5.93742 9.90775 -27.4997 9.90775"/>
        <path d="M188.283 30.9326C166.689 30.9326 166.689 6.81888 145.127 6.81888C123.532 6.81888 123.532 30.9326 101.97 30.9326C80.3757 30.9326 80.3757 6.81888 58.8135 6.81888C37.2192 6.81888 37.2192 30.9326 15.6569 30.9326C-5.90538 30.9326 -5.93742 6.81888 -27.4997 6.81888"/>
        <path d="M188.283 27.8799C166.689 27.8799 166.689 3.76615 145.127 3.76615C123.532 3.76615 123.532 27.8799 101.97 27.8799C80.3757 27.8799 80.3757 3.76615 58.8135 3.76615C37.2192 3.76615 37.2192 27.8799 15.6569 27.8799C-5.90538 27.8799 -5.93742 3.76615 -27.4997 3.76615"/>
        <path d="M188.283 24.79C166.689 24.79 166.689 0.676302 145.127 0.676302C123.532 0.676302 123.532 24.79 101.97 24.79C80.3757 24.79 80.3757 0.676302 58.8135 0.676302C37.2192 0.676302 37.2192 24.79 15.6569 24.79C-5.90538 24.79 -5.93742 0.676302 -27.4997 0.676302"/>
        <path d="M188.283 21.7002C166.689 21.7002 166.689 -2.41354 145.127 -2.41354C123.532 -2.41354 123.532 21.7002 101.97 21.7002C80.3757 21.7002 80.3757 -2.41354 58.8135 -2.41354C37.2192 -2.41354 37.2192 21.7002 15.6569 21.7002C-5.90538 21.7002 -5.93742 -2.41354 -27.4997 -2.41354"/>
        <path d="M188.283 18.6494C166.689 18.6494 166.689 -5.46432 145.127 -5.46432C123.532 -5.46432 123.532 18.6494 101.97 18.6494C80.3757 18.6494 80.3757 -5.46432 58.8135 -5.46432C37.2192 -5.46432 37.2192 18.6494 15.6569 18.6494C-5.90538 18.6494 -5.93742 -5.46432 -27.4997 -5.46432"/>
        <path d="M188.283 15.5596C166.689 15.5596 166.689 -8.55417 145.127 -8.55417C123.532 -8.55417 123.532 15.5596 101.97 15.5596C80.3757 15.5596 80.3757 -8.55417 58.8135 -8.55417C37.2192 -8.55417 37.2192 15.5596 15.6569 15.5596C-5.90538 15.5596 -5.93742 -8.55417 -27.4997 -8.55417"/>
        <path d="M188.283 12.5078C166.689 12.5078 166.689 -11.6059 145.127 -11.6059C123.532 -11.6059 123.532 12.5078 101.97 12.5078C80.3757 12.5078 80.3757 -11.6059 58.8135 -11.6059C37.2192 -11.6059 37.2192 12.5078 15.6569 12.5078C-5.90538 12.5078 -5.93742 -11.6059 -27.4997 -11.6059"/>
        <path d="M188.283 9.41797C166.689 9.41797 166.689 -14.6958 145.127 -14.6958C123.532 -14.6958 123.532 9.41797 101.97 9.41797C80.3757 9.41797 80.3757 -14.6958 58.8135 -14.6958C37.2192 -14.6958 37.2192 9.41797 15.6569 9.41797C-5.90538 9.41797 -5.93742 -14.6958 -27.4997 -14.6958"/>
        <path d="M188.283 6.32812C166.689 6.32812 166.689 -17.7856 145.127 -17.7856C123.532 -17.7856 123.532 6.32812 101.97 6.32812C80.3757 6.32812 80.3757 -17.7856 58.8135 -17.7856C37.2192 -17.7856 37.2192 6.32812 15.6569 6.32812C-5.90538 6.32812 -5.93742 -17.7856 -27.4997 -17.7856"/>
        <path d="M188.283 3.27637C166.689 3.27637 166.689 -20.8374 145.127 -20.8374C123.532 -20.8374 123.532 3.27637 101.97 3.27637C80.3757 3.27637 80.3757 -20.8374 58.8135 -20.8374C37.2192 -20.8374 37.2192 3.27637 15.6569 3.27637C-5.90538 3.27637 -5.93742 -20.8374 -27.4997 -20.8374"/>
        <path d="M188.283 0.186523C166.689 0.186523 166.689 -23.9272 145.127 -23.9272C123.532 -23.9272 123.532 0.186523 101.97 0.186523C80.3757 0.186523 80.3757 -23.9272 58.8135 -23.9272C37.2192 -23.9272 37.2192 0.186523 15.6569 0.186523C-5.90538 0.186523 -5.93742 -23.9272 -27.4997 -23.9272"/>
    </g>
</svg>